<?xml version="1.0" encoding="utf-8"?>
<!-- Generator: Adobe Illustrator 19.1.0, SVG Export Plug-In . SVG Version: 6.00 Build 0)  -->
<svg version="1.1" id="Layer_1" xmlns="http://www.w3.org/2000/svg" xmlns:xlink="http://www.w3.org/1999/xlink" x="0px" y="0px"
	 viewBox="243.7 216 180 180" style="enable-background:new 243.7 216 180 180;" xml:space="preserve">
<style type="text/css">
	.st0{fill:#FFFFFF;}
</style>
<path class="st0" d="M286.5,240.5l9.4,32.8h108.3l-11.1,66.5h-90.3l-23.6-89h-20.8l-3-10.3H286.5z M303.2,300.2h14.5l-3.9-15h-14.5
	L303.2,300.2z M325.4,300.2h20.8v-14.9h-24.4L325.4,300.2z M353.5,300.2h19.1l3.7-15h-22.8C353.5,285.2,353.5,300.2,353.5,300.2z
	 M378.9,300.2h11.7l2.9-15h-10.3L378.9,300.2z M310.6,330.4h14.5l-5.7-22.3h-14.6L310.6,330.4z M333.2,330.4h12.9v-22.3h-18.7
	L333.2,330.4z M353.5,308.1v22.3h10.8l5.8-22.3H353.5z M370.7,330.4h13.6l4.6-22.3h-12.4L370.7,330.4z"/>
<circle class="st0" cx="319.4" cy="365.7" r="13.9"/>
<circle class="st0" cx="376.7" cy="365.7" r="13.9"/>
<polygon class="st0" points="391.4,348.8 305.5,348.8 303.4,342.5 392.5,342.5 "/>
</svg>
