<?xml version="1.0" encoding="utf-8"?>
<!-- Generator: Adobe Illustrator 19.1.0, SVG Export Plug-In . SVG Version: 6.00 Build 0)  -->
<svg version="1.1" id="Layer_1" xmlns="http://www.w3.org/2000/svg" xmlns:xlink="http://www.w3.org/1999/xlink" x="0px" y="0px"
	 viewBox="243.7 216 180 180" style="enable-background:new 243.7 216 180 180;" xml:space="preserve">
<style type="text/css">
	.st0{fill:#E6E7E8;}
</style>
<path class="st0" d="M351,285.2c0,4.6-1.6,10.2-4.7,16.6l-24.5,49.6c-2.5,5.1-3.8,8.8-3.8,11c0,1.8,0.6,2.7,1.8,2.7
	c2.5,0,7.6-4.5,15.3-13.4c3.6-4.3,5.7-6.4,6.3-6.4c1,0,1.8,0.4,2.5,1.3c0.7,0.9,1.1,1.7,1.1,2.5c0,1-2.9,4.6-8.7,10.7
	c-5.8,6.1-11.3,10.9-16.4,14.4s-9.4,5.2-12.9,5.2c-7.2,0-10.8-3.3-10.8-9.9c0-3.8,1.6-9.3,4.9-16.4l24.5-49.4
	c2.5-5.1,3.8-8.9,3.8-11.5c0-1.5-0.7-2.2-2-2.2c-2.5,0-7.9,4.7-15.9,14c-3.3,3.8-5.2,5.7-5.6,5.7c-1,0-1.8-0.4-2.4-1.2
	c-0.6-0.8-1-1.7-1-2.6c0-1.1,2.9-4.7,8.6-10.8c5.7-6.1,11.2-10.8,16.3-14.3c5.2-3.5,9.5-5.2,13-5.2C347.5,275.9,351,279,351,285.2z"
	/>
<path class="st0" d="M367.1,249.4c0,4.5-1.6,8.5-4.9,11.7c-3.3,3.3-7.2,4.9-11.7,4.9c-4.7,0-8.8-1.6-12-4.9
	c-3.3-3.3-4.9-7.2-4.9-11.7c0-4.6,1.6-8.6,4.9-11.9c3.3-3.3,7.3-5,12-5c4.5,0,8.5,1.7,11.7,5C365.5,240.9,367.1,244.8,367.1,249.4z"
	/>
</svg>
